<svg xmlns="http://www.w3.org/2000/svg" xmlns:xlink="http://www.w3.org/1999/xlink" viewBox="0 0 406.93 492.47"><defs><style>.cls-1{fill:url(#linear-gradient);}</style><linearGradient id="linear-gradient" y1="246.23" x2="406.93" y2="246.23" gradientUnits="userSpaceOnUse"><stop offset="0" stop-color="#2170c1"/><stop offset="1" stop-color="#02cfab"/></linearGradient></defs><g id="Layer_2" data-name="Layer 2"><g id="Logo"><g id="logo-2" data-name="logo"><path id="Logo-3" data-name="Logo" class="cls-1" d="M402.2,448.43h0v0l-.16-.24-63.4-95.53a123.15,123.15,0,0,0,35.66-86.72A124.46,124.46,0,0,0,250,141.6H155.7A28.36,28.36,0,0,0,127.34,170c0,.13,0,.25,0,.38s0,.24,0,.36v157C85.68,302.3,57.44,256.71,56.73,204.8,56.2,166,71.26,129,99.13,100.69s64.57-43.9,103.37-44h.27a144.56,144.56,0,0,1,90.14,31.12h0a28.35,28.35,0,1,0,35-44.59h0l-.54-.42h0A200.72,200.72,0,0,0,202.78,0h-.38C148.32.1,97.29,21.72,58.72,60.89S-.72,151.46,0,205.57A203.19,203.19,0,0,0,127.34,391.1v73a28.36,28.36,0,0,0,56.72,0h0V404.69c6.18.57,12.43.85,18.71.85A201.18,201.18,0,0,0,292,385l62.93,94.83h0a28.35,28.35,0,1,0,47.25-31.36ZM184.06,347.62V198.32H250a67.67,67.67,0,0,1,67.6,67.6,66.92,66.92,0,0,1-24.85,51.93,144.51,144.51,0,0,1-90,31A146.39,146.39,0,0,1,184.06,347.62Z"/></g></g></g></svg>