<?xml version="1.0" encoding="utf-8"?>
<!-- Generator: Adobe Illustrator 25.3.0, SVG Export Plug-In . SVG Version: 6.00 Build 0)  -->
<svg version="1.1" id="Layer_1" xmlns="http://www.w3.org/2000/svg" xmlns:xlink="http://www.w3.org/1999/xlink" x="0px"
	y="0px" viewBox="0 0 225 225" style="enable-background:new 0 0 225 225;" xml:space="preserve">
	<path fill="currentColor" d="M0,82.6c7.4-9.2,18.2-11.5,28.8-13.9c20.7-4.6,41.7-5.1,62.8-4.4c5.6,0.2,11.3,0.4,16.9,0.4c2.8,0,4.1,1,5,3.6
	c6.8,19.1,6.7,38.4,1.7,57.7c-1.5,5.7-5.2,10.4-10.8,12.2c-13.3,4.5-26.7,8.7-40.2,12.3c-7.1,1.9-14.5,1.9-20.5-4
	c-1.2-0.9-2.5-1.5-4-1.8c-4.3-1.2-6.1,0.2-6.7,4.6c-0.2,1.8-1.3,3.4-2,5.1c-2-0.9-4.5-1.2-5.8-2.7C11.5,136.5,3,117.3,0.9,96.9
	c-0.2-1.1-0.5-2.2-0.9-3.3V82.6z" />
	<path fill="currentColor" d="M127.1,98.6c-2-11.1-3.9-21.8-5.9-33c6.7,0.7,13.7,1.3,20.8,2.2c19.2,2.3,38.4,5.3,56.7,11.9c6.5,2.5,12.7,5.5,18.6,9.1
	c4.9,2.8,7.1,7.6,6.9,13.4c-0.3,7.4-0.2,14.9,0,22.4c0.1,3.8-1.4,6.5-4.7,8c-4.7,2-9.5,3.6-14.2,5.4l-0.5-1.1c2-1.1,4-2.2,5.8-3.5
	c8.8-6,9-13.4,0.2-19.4s-19-8.8-29.3-10.2c-16.7-2.2-33.6-3.4-50.4-5C129.5,98.7,128,98.6,127.1,98.6z" />
	<path fill="currentColor" d="M117.2,139.3c2.1-5.7,4-11.2,6.3-16.6c0.7-1.3,2-2.1,3.5-2.3c20.7-0.6,41.3-2.8,61.7-6.6c7.3-1.3,14.1,2.9,19.8,7.6
	c0.8,0.6,0.6,4.1-0.2,4.7c-3,2.3-6.4,4.1-9.9,5.4c-22.9,7.6-46.5,10-70.5,8.5C124.1,139.7,120.5,139.5,117.2,139.3z" />
</svg>